<mxfile host="app.diagrams.net" modified="2024-07-10T15:02:52.791Z" agent="Mozilla/5.0 (Windows NT 10.0; Win64; x64) AppleWebKit/537.36 (KHTML, like Gecko) Chrome/126.0.0.0 Safari/537.36 Edg/126.0.0.0" etag="jexJSVwC0iMmebmFd3hL" version="24.4.0" type="device">
  <diagram id="C5RBs43oDa-KdzZeNtuy" name="Page-1">
    <mxGraphModel dx="1513" dy="2207" grid="1" gridSize="10" guides="1" tooltips="1" connect="1" arrows="1" fold="1" page="1" pageScale="1" pageWidth="827" pageHeight="1169" math="0" shadow="0">
      <root>
        <mxCell id="WIyWlLk6GJQsqaUBKTNV-0" />
        <mxCell id="WIyWlLk6GJQsqaUBKTNV-1" parent="WIyWlLk6GJQsqaUBKTNV-0" />
        <mxCell id="MaEEjC9uDTxHg2pqcKxW-3" style="edgeStyle=orthogonalEdgeStyle;rounded=0;orthogonalLoop=1;jettySize=auto;html=1;entryX=0.5;entryY=0;entryDx=0;entryDy=0;" edge="1" parent="WIyWlLk6GJQsqaUBKTNV-1" source="MaEEjC9uDTxHg2pqcKxW-0" target="MaEEjC9uDTxHg2pqcKxW-1">
          <mxGeometry relative="1" as="geometry" />
        </mxCell>
        <mxCell id="MaEEjC9uDTxHg2pqcKxW-4" value="Yes" style="edgeLabel;html=1;align=center;verticalAlign=middle;resizable=0;points=[];" vertex="1" connectable="0" parent="MaEEjC9uDTxHg2pqcKxW-3">
          <mxGeometry x="-0.08" y="2" relative="1" as="geometry">
            <mxPoint x="-22" as="offset" />
          </mxGeometry>
        </mxCell>
        <mxCell id="MaEEjC9uDTxHg2pqcKxW-41" style="edgeStyle=orthogonalEdgeStyle;rounded=0;orthogonalLoop=1;jettySize=auto;html=1;entryX=0;entryY=0.5;entryDx=0;entryDy=0;" edge="1" parent="WIyWlLk6GJQsqaUBKTNV-1" source="MaEEjC9uDTxHg2pqcKxW-0" target="MaEEjC9uDTxHg2pqcKxW-39">
          <mxGeometry relative="1" as="geometry">
            <Array as="points">
              <mxPoint x="110" y="170" />
              <mxPoint x="110" y="1090" />
            </Array>
          </mxGeometry>
        </mxCell>
        <mxCell id="MaEEjC9uDTxHg2pqcKxW-42" value="No" style="edgeLabel;html=1;align=center;verticalAlign=middle;resizable=0;points=[];" vertex="1" connectable="0" parent="MaEEjC9uDTxHg2pqcKxW-41">
          <mxGeometry x="-0.9394" y="1" relative="1" as="geometry">
            <mxPoint x="-12" y="-11" as="offset" />
          </mxGeometry>
        </mxCell>
        <mxCell id="MaEEjC9uDTxHg2pqcKxW-0" value="i &amp;lt; lenght(s) - 1" style="rhombus;whiteSpace=wrap;html=1;" vertex="1" parent="WIyWlLk6GJQsqaUBKTNV-1">
          <mxGeometry x="336.25" y="130" width="127.5" height="80" as="geometry" />
        </mxCell>
        <mxCell id="MaEEjC9uDTxHg2pqcKxW-5" style="edgeStyle=orthogonalEdgeStyle;rounded=0;orthogonalLoop=1;jettySize=auto;html=1;entryX=0.5;entryY=0;entryDx=0;entryDy=0;" edge="1" parent="WIyWlLk6GJQsqaUBKTNV-1" source="MaEEjC9uDTxHg2pqcKxW-1" target="MaEEjC9uDTxHg2pqcKxW-2">
          <mxGeometry relative="1" as="geometry" />
        </mxCell>
        <mxCell id="MaEEjC9uDTxHg2pqcKxW-1" value="substr = s[i]" style="rounded=0;whiteSpace=wrap;html=1;" vertex="1" parent="WIyWlLk6GJQsqaUBKTNV-1">
          <mxGeometry x="340" y="250" width="120" height="60" as="geometry" />
        </mxCell>
        <mxCell id="MaEEjC9uDTxHg2pqcKxW-7" value="" style="edgeStyle=orthogonalEdgeStyle;rounded=0;orthogonalLoop=1;jettySize=auto;html=1;" edge="1" parent="WIyWlLk6GJQsqaUBKTNV-1" source="MaEEjC9uDTxHg2pqcKxW-2" target="MaEEjC9uDTxHg2pqcKxW-8">
          <mxGeometry relative="1" as="geometry">
            <mxPoint x="400" y="460" as="targetPoint" />
          </mxGeometry>
        </mxCell>
        <mxCell id="MaEEjC9uDTxHg2pqcKxW-2" value="int j = i + 1" style="rounded=0;whiteSpace=wrap;html=1;" vertex="1" parent="WIyWlLk6GJQsqaUBKTNV-1">
          <mxGeometry x="340" y="350" width="120" height="60" as="geometry" />
        </mxCell>
        <mxCell id="MaEEjC9uDTxHg2pqcKxW-13" value="" style="edgeStyle=orthogonalEdgeStyle;rounded=0;orthogonalLoop=1;jettySize=auto;html=1;" edge="1" parent="WIyWlLk6GJQsqaUBKTNV-1" source="MaEEjC9uDTxHg2pqcKxW-8" target="MaEEjC9uDTxHg2pqcKxW-12">
          <mxGeometry relative="1" as="geometry" />
        </mxCell>
        <mxCell id="MaEEjC9uDTxHg2pqcKxW-16" value="Yes" style="edgeLabel;html=1;align=center;verticalAlign=middle;resizable=0;points=[];" vertex="1" connectable="0" parent="MaEEjC9uDTxHg2pqcKxW-13">
          <mxGeometry y="-1" relative="1" as="geometry">
            <mxPoint y="-11" as="offset" />
          </mxGeometry>
        </mxCell>
        <mxCell id="MaEEjC9uDTxHg2pqcKxW-20" value="" style="edgeStyle=orthogonalEdgeStyle;rounded=0;orthogonalLoop=1;jettySize=auto;html=1;" edge="1" parent="WIyWlLk6GJQsqaUBKTNV-1" source="MaEEjC9uDTxHg2pqcKxW-8" target="MaEEjC9uDTxHg2pqcKxW-19">
          <mxGeometry relative="1" as="geometry" />
        </mxCell>
        <mxCell id="MaEEjC9uDTxHg2pqcKxW-21" value="No" style="edgeLabel;html=1;align=center;verticalAlign=middle;resizable=0;points=[];" vertex="1" connectable="0" parent="MaEEjC9uDTxHg2pqcKxW-20">
          <mxGeometry x="-0.2" y="3" relative="1" as="geometry">
            <mxPoint x="-23" y="4" as="offset" />
          </mxGeometry>
        </mxCell>
        <mxCell id="MaEEjC9uDTxHg2pqcKxW-8" value="Is s[j] in substr?" style="rhombus;whiteSpace=wrap;html=1;rounded=0;" vertex="1" parent="WIyWlLk6GJQsqaUBKTNV-1">
          <mxGeometry x="325" y="460" width="150" height="80" as="geometry" />
        </mxCell>
        <mxCell id="MaEEjC9uDTxHg2pqcKxW-18" style="edgeStyle=orthogonalEdgeStyle;rounded=0;orthogonalLoop=1;jettySize=auto;html=1;entryX=1;entryY=0.5;entryDx=0;entryDy=0;" edge="1" parent="WIyWlLk6GJQsqaUBKTNV-1" source="MaEEjC9uDTxHg2pqcKxW-12" target="MaEEjC9uDTxHg2pqcKxW-0">
          <mxGeometry relative="1" as="geometry">
            <Array as="points">
              <mxPoint x="680" y="170" />
            </Array>
          </mxGeometry>
        </mxCell>
        <mxCell id="MaEEjC9uDTxHg2pqcKxW-12" value="i += 1&lt;div&gt;longest_substr_len = Max(&lt;span style=&quot;background-color: initial;&quot;&gt;longest_substr_len,&amp;nbsp;&lt;/span&gt;&lt;span style=&quot;background-color: initial;&quot;&gt;length(substr))&lt;/span&gt;&lt;/div&gt;" style="whiteSpace=wrap;html=1;rounded=0;" vertex="1" parent="WIyWlLk6GJQsqaUBKTNV-1">
          <mxGeometry x="570" y="470" width="360" height="60" as="geometry" />
        </mxCell>
        <mxCell id="MaEEjC9uDTxHg2pqcKxW-23" value="" style="edgeStyle=orthogonalEdgeStyle;rounded=0;orthogonalLoop=1;jettySize=auto;html=1;" edge="1" parent="WIyWlLk6GJQsqaUBKTNV-1" source="MaEEjC9uDTxHg2pqcKxW-19" target="MaEEjC9uDTxHg2pqcKxW-22">
          <mxGeometry relative="1" as="geometry" />
        </mxCell>
        <mxCell id="MaEEjC9uDTxHg2pqcKxW-19" value="append s[j] to substr" style="whiteSpace=wrap;html=1;rounded=0;" vertex="1" parent="WIyWlLk6GJQsqaUBKTNV-1">
          <mxGeometry x="340" y="600" width="120" height="60" as="geometry" />
        </mxCell>
        <mxCell id="MaEEjC9uDTxHg2pqcKxW-25" style="edgeStyle=orthogonalEdgeStyle;rounded=0;orthogonalLoop=1;jettySize=auto;html=1;" edge="1" parent="WIyWlLk6GJQsqaUBKTNV-1" source="MaEEjC9uDTxHg2pqcKxW-22" target="MaEEjC9uDTxHg2pqcKxW-24">
          <mxGeometry relative="1" as="geometry" />
        </mxCell>
        <mxCell id="MaEEjC9uDTxHg2pqcKxW-22" value="j++" style="whiteSpace=wrap;html=1;rounded=0;" vertex="1" parent="WIyWlLk6GJQsqaUBKTNV-1">
          <mxGeometry x="340" y="690" width="120" height="60" as="geometry" />
        </mxCell>
        <mxCell id="MaEEjC9uDTxHg2pqcKxW-29" value="" style="edgeStyle=orthogonalEdgeStyle;rounded=0;orthogonalLoop=1;jettySize=auto;html=1;" edge="1" parent="WIyWlLk6GJQsqaUBKTNV-1" source="MaEEjC9uDTxHg2pqcKxW-24" target="MaEEjC9uDTxHg2pqcKxW-28">
          <mxGeometry relative="1" as="geometry" />
        </mxCell>
        <mxCell id="MaEEjC9uDTxHg2pqcKxW-38" value="Yes" style="edgeLabel;html=1;align=center;verticalAlign=middle;resizable=0;points=[];" vertex="1" connectable="0" parent="MaEEjC9uDTxHg2pqcKxW-29">
          <mxGeometry x="-0.3129" y="-1" relative="1" as="geometry">
            <mxPoint x="15" as="offset" />
          </mxGeometry>
        </mxCell>
        <mxCell id="MaEEjC9uDTxHg2pqcKxW-24" value="j &amp;gt; length(s)-1?" style="rhombus;whiteSpace=wrap;html=1;rounded=0;" vertex="1" parent="WIyWlLk6GJQsqaUBKTNV-1">
          <mxGeometry x="345" y="780" width="110" height="80" as="geometry" />
        </mxCell>
        <mxCell id="MaEEjC9uDTxHg2pqcKxW-26" style="edgeStyle=orthogonalEdgeStyle;rounded=0;orthogonalLoop=1;jettySize=auto;html=1;" edge="1" parent="WIyWlLk6GJQsqaUBKTNV-1" source="MaEEjC9uDTxHg2pqcKxW-24" target="MaEEjC9uDTxHg2pqcKxW-8">
          <mxGeometry relative="1" as="geometry">
            <Array as="points">
              <mxPoint x="210" y="820" />
              <mxPoint x="210" y="500" />
            </Array>
          </mxGeometry>
        </mxCell>
        <mxCell id="MaEEjC9uDTxHg2pqcKxW-27" value="No" style="edgeLabel;html=1;align=center;verticalAlign=middle;resizable=0;points=[];" vertex="1" connectable="0" parent="MaEEjC9uDTxHg2pqcKxW-26">
          <mxGeometry x="-0.0035" y="-2" relative="1" as="geometry">
            <mxPoint x="93" y="159" as="offset" />
          </mxGeometry>
        </mxCell>
        <mxCell id="MaEEjC9uDTxHg2pqcKxW-45" style="edgeStyle=orthogonalEdgeStyle;rounded=0;orthogonalLoop=1;jettySize=auto;html=1;" edge="1" parent="WIyWlLk6GJQsqaUBKTNV-1" source="MaEEjC9uDTxHg2pqcKxW-28" target="MaEEjC9uDTxHg2pqcKxW-43">
          <mxGeometry relative="1" as="geometry" />
        </mxCell>
        <mxCell id="MaEEjC9uDTxHg2pqcKxW-28" value="return Max(&lt;span style=&quot;background-color: initial;&quot;&gt;longest_substr_len,&amp;nbsp;&lt;/span&gt;&lt;span style=&quot;background-color: initial;&quot;&gt;length(substr))&lt;/span&gt;" style="whiteSpace=wrap;html=1;rounded=0;" vertex="1" parent="WIyWlLk6GJQsqaUBKTNV-1">
          <mxGeometry x="212.5" y="920" width="375" height="60" as="geometry" />
        </mxCell>
        <mxCell id="MaEEjC9uDTxHg2pqcKxW-34" value="" style="edgeStyle=orthogonalEdgeStyle;rounded=0;orthogonalLoop=1;jettySize=auto;html=1;entryX=0;entryY=0.5;entryDx=0;entryDy=0;" edge="1" parent="WIyWlLk6GJQsqaUBKTNV-1" source="MaEEjC9uDTxHg2pqcKxW-30" target="MaEEjC9uDTxHg2pqcKxW-33">
          <mxGeometry relative="1" as="geometry">
            <mxPoint x="165" y="60.000000000000114" as="sourcePoint" />
          </mxGeometry>
        </mxCell>
        <mxCell id="MaEEjC9uDTxHg2pqcKxW-30" value="START" style="ellipse;whiteSpace=wrap;html=1;" vertex="1" parent="WIyWlLk6GJQsqaUBKTNV-1">
          <mxGeometry x="30" y="20" width="120" height="80" as="geometry" />
        </mxCell>
        <mxCell id="MaEEjC9uDTxHg2pqcKxW-36" value="" style="edgeStyle=orthogonalEdgeStyle;rounded=0;orthogonalLoop=1;jettySize=auto;html=1;" edge="1" parent="WIyWlLk6GJQsqaUBKTNV-1" source="MaEEjC9uDTxHg2pqcKxW-33" target="MaEEjC9uDTxHg2pqcKxW-35">
          <mxGeometry relative="1" as="geometry" />
        </mxCell>
        <mxCell id="MaEEjC9uDTxHg2pqcKxW-33" value="string s" style="shape=parallelogram;perimeter=parallelogramPerimeter;whiteSpace=wrap;html=1;fixedSize=1;" vertex="1" parent="WIyWlLk6GJQsqaUBKTNV-1">
          <mxGeometry x="185" y="30" width="120" height="60" as="geometry" />
        </mxCell>
        <mxCell id="MaEEjC9uDTxHg2pqcKxW-47" value="" style="edgeStyle=orthogonalEdgeStyle;rounded=0;orthogonalLoop=1;jettySize=auto;html=1;" edge="1" parent="WIyWlLk6GJQsqaUBKTNV-1" source="MaEEjC9uDTxHg2pqcKxW-35" target="MaEEjC9uDTxHg2pqcKxW-46">
          <mxGeometry relative="1" as="geometry" />
        </mxCell>
        <mxCell id="MaEEjC9uDTxHg2pqcKxW-35" value="i = 0&lt;div&gt;string substr = &quot;&quot;&lt;/div&gt;&lt;div&gt;longest_substr_len = 0&lt;/div&gt;" style="whiteSpace=wrap;html=1;" vertex="1" parent="WIyWlLk6GJQsqaUBKTNV-1">
          <mxGeometry x="325" y="30" width="150" height="60" as="geometry" />
        </mxCell>
        <mxCell id="MaEEjC9uDTxHg2pqcKxW-44" value="" style="edgeStyle=orthogonalEdgeStyle;rounded=0;orthogonalLoop=1;jettySize=auto;html=1;" edge="1" parent="WIyWlLk6GJQsqaUBKTNV-1" source="MaEEjC9uDTxHg2pqcKxW-39" target="MaEEjC9uDTxHg2pqcKxW-43">
          <mxGeometry relative="1" as="geometry" />
        </mxCell>
        <mxCell id="MaEEjC9uDTxHg2pqcKxW-39" value="return longest_substr_len" style="whiteSpace=wrap;html=1;rounded=0;" vertex="1" parent="WIyWlLk6GJQsqaUBKTNV-1">
          <mxGeometry x="305" y="1060" width="190" height="60" as="geometry" />
        </mxCell>
        <mxCell id="MaEEjC9uDTxHg2pqcKxW-43" value="END" style="ellipse;whiteSpace=wrap;html=1;rounded=0;" vertex="1" parent="WIyWlLk6GJQsqaUBKTNV-1">
          <mxGeometry x="630" y="1050" width="80" height="80" as="geometry" />
        </mxCell>
        <mxCell id="MaEEjC9uDTxHg2pqcKxW-49" value="" style="edgeStyle=orthogonalEdgeStyle;rounded=0;orthogonalLoop=1;jettySize=auto;html=1;" edge="1" parent="WIyWlLk6GJQsqaUBKTNV-1" source="MaEEjC9uDTxHg2pqcKxW-46" target="MaEEjC9uDTxHg2pqcKxW-48">
          <mxGeometry relative="1" as="geometry" />
        </mxCell>
        <mxCell id="MaEEjC9uDTxHg2pqcKxW-50" value="Yes" style="edgeLabel;html=1;align=center;verticalAlign=middle;resizable=0;points=[];" vertex="1" connectable="0" parent="MaEEjC9uDTxHg2pqcKxW-49">
          <mxGeometry x="-0.0138" y="1" relative="1" as="geometry">
            <mxPoint x="-19" as="offset" />
          </mxGeometry>
        </mxCell>
        <mxCell id="MaEEjC9uDTxHg2pqcKxW-52" value="" style="edgeStyle=orthogonalEdgeStyle;rounded=0;orthogonalLoop=1;jettySize=auto;html=1;" edge="1" parent="WIyWlLk6GJQsqaUBKTNV-1" source="MaEEjC9uDTxHg2pqcKxW-46" target="MaEEjC9uDTxHg2pqcKxW-51">
          <mxGeometry relative="1" as="geometry" />
        </mxCell>
        <mxCell id="MaEEjC9uDTxHg2pqcKxW-55" value="No" style="edgeLabel;html=1;align=center;verticalAlign=middle;resizable=0;points=[];" vertex="1" connectable="0" parent="MaEEjC9uDTxHg2pqcKxW-52">
          <mxGeometry x="-0.1" y="2" relative="1" as="geometry">
            <mxPoint y="-18" as="offset" />
          </mxGeometry>
        </mxCell>
        <mxCell id="MaEEjC9uDTxHg2pqcKxW-46" value="length(s) &amp;lt;=0?" style="rhombus;whiteSpace=wrap;html=1;" vertex="1" parent="WIyWlLk6GJQsqaUBKTNV-1">
          <mxGeometry x="590" y="20" width="120" height="80" as="geometry" />
        </mxCell>
        <mxCell id="MaEEjC9uDTxHg2pqcKxW-60" style="edgeStyle=orthogonalEdgeStyle;rounded=0;orthogonalLoop=1;jettySize=auto;html=1;" edge="1" parent="WIyWlLk6GJQsqaUBKTNV-1" source="MaEEjC9uDTxHg2pqcKxW-48">
          <mxGeometry relative="1" as="geometry">
            <mxPoint x="970" y="-90" as="targetPoint" />
            <Array as="points">
              <mxPoint x="650" y="-170" />
              <mxPoint x="970" y="-170" />
            </Array>
          </mxGeometry>
        </mxCell>
        <mxCell id="MaEEjC9uDTxHg2pqcKxW-48" value="return 0" style="whiteSpace=wrap;html=1;" vertex="1" parent="WIyWlLk6GJQsqaUBKTNV-1">
          <mxGeometry x="590" y="-120" width="120" height="60" as="geometry" />
        </mxCell>
        <mxCell id="MaEEjC9uDTxHg2pqcKxW-54" value="" style="edgeStyle=orthogonalEdgeStyle;rounded=0;orthogonalLoop=1;jettySize=auto;html=1;" edge="1" parent="WIyWlLk6GJQsqaUBKTNV-1" source="MaEEjC9uDTxHg2pqcKxW-51" target="MaEEjC9uDTxHg2pqcKxW-53">
          <mxGeometry relative="1" as="geometry" />
        </mxCell>
        <mxCell id="MaEEjC9uDTxHg2pqcKxW-56" value="Yes" style="edgeLabel;html=1;align=center;verticalAlign=middle;resizable=0;points=[];" vertex="1" connectable="0" parent="MaEEjC9uDTxHg2pqcKxW-54">
          <mxGeometry x="0.1" y="-1" relative="1" as="geometry">
            <mxPoint x="-16" as="offset" />
          </mxGeometry>
        </mxCell>
        <mxCell id="MaEEjC9uDTxHg2pqcKxW-57" style="edgeStyle=orthogonalEdgeStyle;rounded=0;orthogonalLoop=1;jettySize=auto;html=1;" edge="1" parent="WIyWlLk6GJQsqaUBKTNV-1" source="MaEEjC9uDTxHg2pqcKxW-51" target="MaEEjC9uDTxHg2pqcKxW-0">
          <mxGeometry relative="1" as="geometry">
            <Array as="points">
              <mxPoint x="835" y="110" />
              <mxPoint x="400" y="110" />
            </Array>
          </mxGeometry>
        </mxCell>
        <mxCell id="MaEEjC9uDTxHg2pqcKxW-58" value="No" style="edgeLabel;html=1;align=center;verticalAlign=middle;resizable=0;points=[];" vertex="1" connectable="0" parent="MaEEjC9uDTxHg2pqcKxW-57">
          <mxGeometry x="-0.7247" y="1" relative="1" as="geometry">
            <mxPoint x="-6" y="19" as="offset" />
          </mxGeometry>
        </mxCell>
        <mxCell id="MaEEjC9uDTxHg2pqcKxW-51" value="length(s) == 1?" style="rhombus;whiteSpace=wrap;html=1;" vertex="1" parent="WIyWlLk6GJQsqaUBKTNV-1">
          <mxGeometry x="770" y="20" width="130" height="80" as="geometry" />
        </mxCell>
        <mxCell id="MaEEjC9uDTxHg2pqcKxW-59" style="edgeStyle=orthogonalEdgeStyle;rounded=0;orthogonalLoop=1;jettySize=auto;html=1;entryX=1;entryY=0.5;entryDx=0;entryDy=0;" edge="1" parent="WIyWlLk6GJQsqaUBKTNV-1" source="MaEEjC9uDTxHg2pqcKxW-53" target="MaEEjC9uDTxHg2pqcKxW-43">
          <mxGeometry relative="1" as="geometry">
            <Array as="points">
              <mxPoint x="970" y="-90" />
              <mxPoint x="970" y="1090" />
            </Array>
          </mxGeometry>
        </mxCell>
        <mxCell id="MaEEjC9uDTxHg2pqcKxW-53" value="return 1" style="whiteSpace=wrap;html=1;" vertex="1" parent="WIyWlLk6GJQsqaUBKTNV-1">
          <mxGeometry x="775" y="-120" width="120" height="60" as="geometry" />
        </mxCell>
      </root>
    </mxGraphModel>
  </diagram>
</mxfile>
